<?xml version="1.0" encoding="UTF-8" standalone="no"?>
<!-- Created with Inkscape (http://www.inkscape.org/) -->

<svg
   width="37.835419mm"
   height="54.436081mm"
   viewBox="0 0 37.835419 54.436081"
   version="1.1"
   id="svg1"
   xml:space="preserve"
   xmlns="http://www.w3.org/2000/svg"
   xmlns:svg="http://www.w3.org/2000/svg"><defs
     id="defs1" /><g
     id="layer1"
     transform="translate(-358.47729,40.612567)"><g
       id="g11"
       style="stroke:#000000;stroke-width:0.79375;stroke-dasharray:none;stroke-opacity:1;paint-order:markers stroke fill"
       transform="rotate(90,377.395,-14.287501)"><ellipse
         style="fill:#008000;stroke:#000000;stroke-width:0.79375;stroke-dasharray:none;stroke-opacity:1;paint-order:markers stroke fill"
         id="path1-7-7"
         cx="377.29578"
         cy="-14.287501"
         rx="18.520756"
         ry="18.520834" /><path
         id="path1-7-7-8"
         style="fill:#f9f9f9;stroke:#000000;stroke-width:0.79375;stroke-dasharray:none;stroke-opacity:1;paint-order:markers stroke fill"
         d="m 377.29578,-32.808335 c -10.22875,-4.1e-5 -18.52083,8.292041 -18.52083,18.520834 0,10.2287922 8.29208,18.5208741 18.52083,18.5208332 10.22875,4.09e-5 18.52083,-8.292041 18.52083,-18.5208332 0,-10.228793 -8.29208,-18.520875 -18.52083,-18.520834 z m -1.98438,2.768824 v 31.50402 c -7.83094,-0.97652794 -13.89062,-7.6565038 -13.89062,-15.75201 0,-8.095506 6.05968,-14.775482 13.89062,-15.75201 z m 3.96875,0 c 7.83096,0.97648 13.89063,7.656504 13.89063,15.75201 0,8.0955052 -6.05968,14.77552836 -13.89063,15.75201 z" /><path
         id="rect3-9-0"
         style="opacity:1;fill:#ff0000;stroke:#000000;stroke-width:0.79375;stroke-dasharray:none;stroke-opacity:1;paint-order:markers stroke fill"
         d="m 355.59995,-18.256255 v 2.645802 l 42.33335,2.9e-5 2.64581,-2.645811 3.96876,-1.2e-5 -3.96876,3.968761 3.96876,3.968739 -3.96876,-8e-6 -2.64583,-2.645835 -42.33334,-2.9e-5 10e-6,2.645864 -3.96875,-3.96875 z" /></g></g></svg>
