<?xml version="1.0" encoding="UTF-8" standalone="no"?>
<!-- Created with Inkscape (http://www.inkscape.org/) -->

<svg
   width="37.703129mm"
   height="54.182846mm"
   viewBox="0 0 37.703129 54.182846"
   version="1.1"
   id="svg1"
   xml:space="preserve"
   xmlns="http://www.w3.org/2000/svg"
   xmlns:svg="http://www.w3.org/2000/svg"><defs
     id="defs1" /><g
     id="layer1"
     transform="translate(-358.54349,39.592983)"><g
       id="g32"
       style="stroke-width:0.661458;stroke-dasharray:none"
       transform="translate(0,-0.92604166)"><g
         id="g31"
         style="stroke:#000000;stroke-width:0.661458;stroke-dasharray:none;stroke-opacity:1;paint-order:markers stroke fill"><circle
           style="fill:#008000;stroke:none;stroke-width:0.661458;stroke-dasharray:none;stroke-opacity:1;paint-order:markers stroke fill"
           id="path2-1-0"
           cx="377.39505"
           cy="-13.063802"
           r="18.520834" /><path
           id="path2-1"
           style="fill:#f9f9f9;stroke:#000000;stroke-width:0.661458;stroke-dasharray:none;stroke-opacity:1;paint-order:markers stroke fill"
           d="m 377.39505,-31.584635 a 18.520834,18.520834 0 0 0 -18.52083,18.520833 18.520834,18.520834 0 0 0 18.52083,18.5208332 18.520834,18.520834 0 0 0 18.52084,-18.5208332 18.520834,18.520834 0 0 0 -18.52084,-18.520833 z m 0,2.645833 a 15.875,15.875 0 0 1 15.81402,14.552083 h -31.58515 a 15.875,15.875 0 0 1 15.77113,-14.552083 z m -15.77113,17.197917 h 31.54226 A 15.875,15.875 0 0 1 377.39505,2.8111979 15.875,15.875 0 0 1 361.62392,-11.740885 Z" /></g><path
         id="rect3-9-0-6"
         style="fill:#ff0000;stroke:#000000;stroke-width:0.661458;stroke-dasharray:none;stroke-opacity:1;paint-order:markers stroke fill"
         d="m 381.36381,-34.23047 h -2.6458 l -3e-5,42.3333498 2.64581,2.6458102 1e-5,3.96876 -3.96876,-3.96876 -3.96874,3.96876 10e-6,-3.96876 2.64584,-2.6458302 3e-5,-42.3333398 -2.64587,1e-5 3.96875,-3.96875 z" /></g></g></svg>
